<?xml version="1.0" encoding="UTF-8" standalone="no"?>
<svg
   version="1.1"
   id="svg1"
   viewBox="166.9 268.5 500 309.4"
   xmlns="http://www.w3.org/2000/svg">
  <g id="g1">
    <g id="group-R5">
      <path
         id="path3"
         d="m 3832.29,4274.42 c 0,-412.16 0,-815.44 0,-1220.95 -52.29,0 -103.2,0 -158.18,0 0,287.51 0,573.41 0,859.32 -2.37,0.79 -4.73,1.58 -7.09,2.38 -35.68,-45.86 -71.35,-91.73 -107.05,-137.56 -141.72,-181.92 -282.67,-364.43 -425.48,-545.48 -73.5,-93.19 -171.26,-156.07 -288.52,-164.55 -203.09,-14.68 -407.16,-15.77 -613.31,-22.64 0,412.57 0,814.88 0,1219.8 10.97,0.75 20.98,2.01 31,2.02 207.75,0.21 415.51,1.53 623.24,-0.06 134.23,-1.03 259.19,-32.79 361.71,-126.4 84.78,-77.42 131.28,-175.19 150.65,-286.9 1.37,-7.93 -1.01,-18.9 -5.88,-25.15 -49,-62.94 -98.89,-125.19 -148.87,-188.06 -7.18,74.13 -8.55,146.46 -22.7,216.19 -11.45,56.42 -32.34,112.91 -59.58,163.72 -51.97,96.89 -139.17,153.14 -247.63,157.12 -172.89,6.35 -346.18,1.7 -521.99,1.7 0,-343.37 0,-687.05 0,-1031.59 4.5,-1.52 8.77,-4.3 12.97,-4.19 126.06,3.35 252.67,0.86 378.01,12.26 130.32,11.86 229.35,86.03 309.36,187.1 241.42,304.96 483.2,609.62 724.85,914.39 2.76,3.47 5.65,6.84 14.49,17.53"
         style="fill:#eef6f0;fill-opacity:1;fill-rule:nonzero;stroke:none"
         transform="matrix(0.13333333,0,0,-0.13333333,0,848.34667)" />
      <path
         id="path4"
         d="m 2573.42,3208.41 c 0,295.24 0,589.6 0,893.16 55.29,0 108.86,1.88 162.14,-1.27 13.99,-0.82 30.08,-14.73 40.09,-26.86 108.05,-130.89 215.15,-262.59 322.36,-394.18 29.59,-36.31 58.69,-73.02 89.51,-111.4 -29.99,-38.35 -58.69,-75.05 -90.16,-115.3 -119.19,145.75 -235.69,288.21 -358.72,438.66 0,-233.16 0,-456.66 0,-682.81 -57.42,0 -110.49,0 -165.22,0"
         style="fill:#eef6f0;fill-opacity:1;fill-rule:nonzero;stroke:none"
         transform="matrix(0.13333333,0,0,-0.13333333,0,848.34667)" />
      <path
         id="path5"
         d="M 21.2825,-50.661586 H 4.1379687 V -0.00142969 H 21.2825 c 14.964844,0 25.019531,-10.28906231 25.019531,-25.33593731 0,-15.035156 -10.054687,-25.324219 -25.019531,-25.324219 z m 0,44.8945313 H 9.9739062 V -44.895961 H 21.2825 c 9.585937,0 19.089844,6.316406 19.089844,19.558594 0,13.253906 -9.503907,19.5703123 -19.089844,19.5703123 z M 71.470977,-36.481898 c -10.757813,0 -17.695313,7.875 -17.695313,18.550781 0,10.6757811 7.253906,18.63281231 18.164063,18.63281231 6.550781,0 11.847656,-2.88281251 14.964843,-7.48828121 l -3.972656,-2.8828125 c -2.027344,3.046875 -5.695312,5.4609375 -10.992187,5.4609375 -7.089844,0 -12,-4.7578125 -12.703125,-11.9296871 h 29.378906 v -1.792969 c 0,-10.675781 -6.855469,-18.550781 -17.144531,-18.550781 z m 0,4.675781 c 6.703125,0 11.144531,4.992187 11.929687,11.777344 H 59.236602 c 0.773437,-7.019532 5.226562,-11.777344 12.234375,-11.777344 z m 53.390623,5.695312 4.13672,-3.117187 c -3.11719,-4.441406 -8.26172,-7.171875 -14.57812,-7.171875 -10.75782,0 -18.164067,7.710937 -18.164067,18.46875 0,10.7578123 7.406247,18.55078106 18.164067,18.55078106 6.3164,0 11.46093,-2.73046876 14.57812,-7.24218746 l -4.13672,-3.046875 c -2.09765,2.8125 -5.3789,4.9101562 -10.28906,4.9101562 -7.71094,0 -12.77344,-5.5312498 -12.77344,-13.1718748 0,-7.640625 5.0625,-13.089844 12.77344,-13.089844 4.91016,0 8.26172,2.097656 10.28906,4.910156 z m 28.45313,26.81250031 c 10.75781,0 18.23437,-7.95703121 18.23437,-18.63281231 0,-10.757813 -7.47656,-18.550781 -18.23437,-18.550781 -10.75782,0 -18.2461,7.792968 -18.2461,18.550781 0,10.6757811 7.48828,18.63281231 18.2461,18.63281231 z m 0,-5.46093751 c -7.5586,0 -12.63282,-5.6132808 -12.63282,-13.1718748 0,-7.558594 5.07422,-13.089844 12.63282,-13.089844 7.55859,0 12.55078,5.53125 12.55078,13.089844 0,7.558594 -4.99219,13.1718748 -12.55078,13.1718748 z m 90.64453,-45.9023438 h -6.23438 l -17.84765,35.542969 -17.84766,-35.542969 h -6.23437 v 50.66015631 h 5.83593 V -39.364711 l 16.21875,33.1289063 h 4.05469 L 238.1116,-39.364711 v 39.36328131 h 5.84766 z m 26.9707,51.36328131 c 10.75781,0 18.23438,-7.95703121 18.23438,-18.63281231 0,-10.757813 -7.47657,-18.550781 -18.23438,-18.550781 -10.75781,0 -18.24609,7.792968 -18.24609,18.550781 0,10.6757811 7.48828,18.63281231 18.24609,18.63281231 z m 0,-5.46093751 c -7.55859,0 -12.63281,-5.6132808 -12.63281,-13.1718748 0,-7.558594 5.07422,-13.089844 12.63281,-13.089844 7.55859,0 12.55078,5.53125 12.55078,13.089844 0,7.558594 -4.99219,13.1718748 -12.55078,13.1718748 z m 31.25098,-38.7304688 c 1.71094,0 3.43359,-1.40625 3.43359,-3.515625 0,-2.097656 -1.72265,-3.351562 -3.51562,-3.351562 -1.71094,0 -3.42188,1.253906 -3.42188,3.351562 0,2.109375 1.79297,3.515625 3.50391,3.515625 z m -6.85547,57.832031 c 6.46875,0 9.65625,-3.820312 9.65625,-9.1171872 V -35.849086 h -5.60156 V 4.1352891 c 0,4.2773437 -2.4961,5.6015625 -5.84766,5.6015625 h -1.875 V 14.34232 Z m 49.72558,-50.191406 v 6.46875 c -2.73046,-4.289062 -7.2539,-7.019531 -13.33593,-7.019531 -10.20703,0 -17.46094,7.710937 -17.46094,18.46875 0,10.6757811 7.25391,18.55078106 17.46094,18.55078106 6.08203,0 10.60547,-2.80078126 13.33593,-7.08984376 v 6.46875001 h 5.6836 V -35.849086 Z m -12.63281,31.0898438 c -7.64062,0 -12.70312,-5.5312498 -12.70312,-13.1718748 0,-7.640625 5.0625,-13.089844 12.70312,-13.089844 7.72266,0 12.63281,5.449219 12.63281,13.089844 0,7.640625 -4.91015,13.1718748 -12.63281,13.1718748 z m 0,0"
         style="fill:#eef6f0;fill-opacity:1;fill-rule:nonzero;stroke:none"
         aria-label="Deco Moja"
         transform="matrix(1.3333333,0,0,1.3333333,176.87333,548.748)" />
    </g>
  </g>
</svg>